HIERARCHY
ROOT Hips
{
	OFFSET 0.000000 0.000000 0.000000 
	CHANNELS 6 Xposition Yposition Zposition Yrotation Zrotation Xrotation 
	JOINT Lumbar
	{
		OFFSET 0.000000 0.000000 0.000000 
		CHANNELS 3 Zrotation Xrotation Yrotation
		JOINT Neck
		{
			OFFSET 0.000000 0.445665 0.000000 
			CHANNELS 3 Zrotation Xrotation Yrotation
			End Site
			{
				OFFSET 0.000000 0.227535 0.000000 
			}
		}
		JOINT RightShoulder
		{
			OFFSET 0.019635 0.377685 0.194865 
			CHANNELS 3 Zrotation Xrotation Yrotation
			JOINT RightElbow
			{
				OFFSET 0.000000 -0.243375 0.000000 
				CHANNELS 2 Zrotation Yrotation
				JOINT RightWrist
				{
					OFFSET 0.000000 -0.264825 0.000000 
					CHANNELS 2 Zrotation Xrotation
					End Site
					{
						OFFSET 0.006600 -0.176220 0.000990 
					}
				}
			}
		}
		JOINT LeftShoulder
		{
			OFFSET 0.019635 0.377685 -0.194865 
			CHANNELS 3 Zrotation Xrotation Yrotation
			JOINT LeftElbow
			{
				OFFSET 0.000000 -0.243375 0.000000 
				CHANNELS 2 Zrotation Yrotation
				JOINT LeftWrist
				{
					OFFSET 0.000000 -0.264825 0.000000 
					CHANNELS 2 Zrotation Xrotation
					End Site
					{
						OFFSET 0.006600 -0.176220 -0.000990 
					}
				}
			}
		}
	}
	JOINT RightHip
	{
		OFFSET 0.052140 -0.069960 0.075570 
		CHANNELS 3 Zrotation Xrotation Yrotation
		JOINT RightKnee
		{
			OFFSET 0.000000 -0.402270 0.000000 
			CHANNELS 1 Zrotation
			JOINT RightAnkle
			{
				OFFSET 0.000000 -0.404085 0.000000 
				CHANNELS 3 Zrotation Xrotation Yrotation
				End Site
				{
					OFFSET 0.204105 -0.089430 0.008415 
				}
			}
		}
	}
	JOINT LeftHip
	{
		OFFSET 0.052140 -0.069960 -0.075570 
		CHANNELS 3 Zrotation Xrotation Yrotation
		JOINT LeftKnee
		{
			OFFSET 0.000000 -0.402270 0.000000 
			CHANNELS 1 Zrotation
			JOINT LeftAnkle
			{
				OFFSET 0.000000 -0.404085 0.000000 
				CHANNELS 3 Zrotation Xrotation Yrotation
				End Site
				{
					OFFSET 0.204105 -0.089430 -0.008415 
				}
			}
		}
	}
}
MOTION
Frames: 27
Frame Time: 0.02
-0.77829 -0.12029 -0.70897 -359.81921 -24.3042 -1.57902 40.74006 1.97821 -0.51356 -2.08613 -3.90909 -0.83079 -57.49452 -62.91905 46.08617 112.93704 118.00149 -49.16465 -7.36059 27.73547 -7.91648 13.33731 135.82581 -82.29556 -52.92264 4.97266 55.37752 -5.58664 -7.03427 -18.13681 -11.11028 -3.26591 -2.56677 47.20666 -1.50725 7.25884 -27.58934 -7.12169 2.45747 1.93639
-0.76962 -0.1189 -0.70891 -359.6689 -24.45939 -1.77378 40.74182 1.97161 -0.96325 -2.21302 -3.38172 -0.83079 -58.1731 -62.5061 45.12253 112.9643 119.70514 -50.84384 -7.5608 27.5007 -7.76993 13.01312 135.92782 -82.61525 -52.83844 4.83024 55.32121 -5.50344 -12.87198 -14.48884 -12.34027 2.36335 0.47997 46.83005 -1.22702 7.51561 -27.81807 -7.02655 2.39753 1.89668
-0.7605 -0.11764 -0.70876 -359.43527 -24.62681 -1.95022 40.78633 1.95901 -1.41175 -2.34702 -2.84854 -0.83079 -59.39948 -61.83162 43.43059 113.02223 122.81363 -53.86925 -7.91063 27.1315 -7.54268 12.56301 135.97658 -82.89282 -52.64381 4.56726 55.19531 -5.51949 -20.26852 -11.06817 -13.78098 9.43791 4.31456 46.45334 -0.95741 7.78225 -28.07735 -6.93114 2.3355 1.85444
-0.75151 -0.11633 -0.70861 -359.23766 -24.78657 -2.13058 40.81423 1.94872 -1.85147 -2.47325 -2.31853 -0.83079 -60.33442 -61.29577 42.12437 113.06427 125.16736 -56.17926 -8.17923 26.83525 -7.3558 12.19464 136.0384 -83.1215 -52.50944 4.36333 55.11615 -5.49386 -26.72836 -7.63477 -15.05386 15.60314 7.65684 46.07284 -0.68909 8.0274 -28.32595 -6.83544 2.27716 1.81498
-0.74282 -0.11496 -0.70862 -359.0454 -24.95456 -2.32899 40.8283 1.93932 -2.33101 -2.61874 -1.78503 -0.83079 -61.43684 -60.68077 40.60278 113.1127 127.9813 -58.89689 -8.50135 26.48694 -7.15719 11.7234 136.14876 -83.64496 -52.33769 4.14443 54.96886 -5.45981 -34.14974 -3.80709 -16.63035 22.83427 11.56647 45.70793 -0.39548 8.34739 -28.56054 -6.74124 2.20661 1.7683
-0.73339 -0.11376 -0.70827 -358.8233 -25.1086 -2.48571 40.88297 1.92721 -2.7273 -2.72552 -1.25856 -0.83079 -62.32585 -60.16639 39.34932 113.15607 130.18567 -61.09886 -8.74892 26.2168 -6.96246 11.43646 136.14593 -83.54165 -52.21694 3.92666 54.94447 -5.46359 -39.94466 -0.85841 -17.62681 28.19468 14.48414 45.3101 -0.15602 8.51365 -28.83178 -6.64405 2.1611 1.73612
-0.72217 -0.11301 -0.70703 -358.53777 -25.22102 -2.5314 41.0288 1.90625 -2.89202 -2.72649 -0.74486 -0.83079 -62.48121 -59.99923 39.03237 113.17491 130.32057 -61.51966 -8.74821 26.18482 -6.79646 11.68619 135.82955 -81.71992 -52.24678 3.74503 55.33084 -5.55927 -40.79224 -0.29759 -16.94593 27.95438 14.43151 44.82977 -0.07381 8.23995 -29.19672 -6.53747 2.18708 1.74552
-0.7102 -0.11242 -0.70543 -358.22614 -25.31935 -2.53611 41.2164 1.8835 -2.97338 -2.68759 -0.24006 -0.83079 -62.40576 -59.94055 39.00495 113.18837 129.80582 -61.38376 -8.66877 26.23847 -6.6367 12.12564 135.40343 -79.27031 -52.33359 3.56797 55.83668 -5.68666 -39.95652 -0.61603 -15.67963 25.79271 13.35838 44.31527 -0.04372 7.81247 -29.59762 -6.4282 2.23819 1.76953
-0.69848 -0.11177 -0.70395 -357.92713 -25.42396 -2.55967 41.39152 1.86331 -3.09395 -2.66536 0.26355 -0.83079 -62.44512 -59.82851 38.83138 113.20657 129.61956 -61.52539 -8.62929 26.25972 -6.47488 12.48083 135.03618 -77.10208 -52.40524 3.38572 56.25064 -5.79121 -39.94761 -0.51844 -14.6952 24.56694 12.77918 43.81072 0.01673 7.46408 -29.98214 -6.32086 2.27659 1.78624
-0.68715 -0.1111 -0.70266 -357.62008 -25.52844 -2.58082 41.53946 1.83496 -3.20843 -2.65022 0.7897 -0.83079 -62.46414 -59.72571 38.69462 113.21626 129.33931 -61.61147 -8.57685 26.2479 -6.30782 12.82566 134.62864 -74.93733 -52.42964 3.21115 56.8115 -5.93513 -39.75701 -0.48283 -13.64583 23.13943 12.10699 43.32839 0.04798 7.07958 -30.36777 -6.21022 2.32001 1.80549
-0.67481 -0.11049 -0.70088 -357.32702 -25.63105 -2.59851 41.7549 1.82398 -3.31638 -2.60983 1.26642 -0.83079 -62.46036 -59.6314 38.5588 113.24186 129.08502 -61.66164 -8.53138 26.32811 -6.15319 13.23588 134.28028 -72.6317 -52.56517 3.02487 57.1072 -6.00299 -39.4936 -0.543 -12.59689 21.64127 11.36738 42.7933 0.12865 6.7307 -30.75937 -6.10617 2.35939 1.82317
-0.65992 -0.11012 -0.69793 -357.05906 -25.7193 -2.60785 42.13246 1.85516 -3.42227 -2.51767 1.61093 -0.83079 -62.47484 -59.54879 38.36454 113.31383 129.02762 -61.75637 -8.51802 26.63371 -6.04023 13.80548 134.11618 -69.96201 -53.01221 2.79158 56.53976 -5.85422 -39.70837 -0.48557 -11.62985 20.54999 10.76236 42.10667 0.35101 6.54189 -31.15824 -6.01808 2.3781 1.83108
-0.64403 -0.10979 -0.69449 -356.81007 -25.8078 -2.61674 42.57828 1.90496 -3.52558 -2.40013 1.90538 -0.83079 -62.46652 -59.4707 38.16434 113.40173 129.01463 -61.82336 -8.51437 27.03135 -5.93821 14.43022 134.01634 -67.19634 -53.56568 2.54945 55.71806 -5.62673 -39.85636 -0.52119 -10.6927 19.42583 10.10957 41.37062 0.62611 6.38906 -31.56251 -5.93738 2.39255 1.83729
-0.62857 -0.1094 -0.69122 -356.56607 -25.90524 -2.63185 43.00263 1.95055 -3.63262 -2.28847 2.22159 -0.83079 -62.45027 -59.38065 37.96237 113.48134 129.00077 -61.8949 -8.51032 27.39235 -5.82591 15.01386 133.89191 -64.55928 -54.05944 2.32094 55.08322 -5.43449 -39.84385 -0.62644 -9.78354 18.21808 9.42533 40.66676 0.8824 6.20466 -31.96353 -5.85502 2.41119 1.8455
-0.6132 -0.1092 -0.68817 -356.26426 -25.96668 -2.62059 43.39071 1.97869 -3.7248 -2.19831 2.54248 -0.83079 -62.50549 -59.3312 37.78346 113.56482 128.89767 -61.9931 -8.48859 27.73339 -5.73662 15.67194 133.74612 -61.54178 -54.60511 2.05216 54.16233 -5.24713 -40.55393 -0.30258 -8.68418 17.34449 8.92172 39.92133 1.11618 6.08168 -32.36625 -5.76484 2.42116 1.84896
-0.59741 -0.10861 -0.68456 -356.08695 -26.09997 -2.66407 43.8668 2.04689 -3.84986 -2.05912 2.84081 -0.83079 -62.40693 -59.20298 37.55826 113.64461 128.98162 -62.02219 -8.50461 28.13795 -5.60141 16.18539 133.65904 -59.30169 -55.06455 1.86489 53.76169 -5.02859 -39.79673 -0.86732 -7.98866 15.81162 8.05468 39.25032 1.40868 5.83818 -32.76993 -5.69343 2.44789 1.8618
-0.5806 -0.10701 -0.67951 -356.25579 -26.46033 -2.86435 44.59585 2.22768 -4.05372 -1.78017 3.09772 -0.83079 -61.91154 -58.80195 37.14604 113.70585 129.72822 -61.99307 -8.64364 28.6845 -5.34054 16.28603 133.74051 -59.2388 -55.28011 1.90684 54.97655 -4.75975 -34.73482 -3.9947 -8.46452 12.30346 6.1051 38.80621 1.86206 5.2818 -33.14583 -5.66639 2.5215 1.90013
-0.56342 -0.105 -0.67392 -356.54829 -26.88755 -3.11878 45.40553 2.44709 -4.29305 -1.45497 3.3319 -0.83079 -61.26 -58.32992 36.6962 113.76364 130.63852 -61.87777 -8.81714 29.29302 -5.03199 16.23761 133.87544 -59.96338 -55.39946 2.03061 56.70145 -4.45941 -28.25685 -7.98414 -9.33727 8.17242 3.81317 38.43837 2.37061 4.5993 -33.52955 -5.65918 2.61207 1.94803
-0.54647 -0.10314 -0.66857 -356.77951 -27.26559 -3.34519 46.16116 2.64439 -4.52545 -1.15801 3.57107 -0.83079 -60.66538 -57.92686 36.30347 113.82604 131.37005 -61.71795 -8.96087 29.8804 -4.74316 16.25726 133.97168 -60.32607 -55.55146 2.11578 58.11561 -4.16196 -22.61258 -11.48804 -9.98902 4.44346 1.74284 38.02809 2.84672 3.95523 -33.92633 -5.64648 2.69502 1.99204
-0.52922 -0.10146 -0.6632 -357.03208 -27.7236 -3.58653 46.99436 2.86102 -4.72092 -0.82945 3.83173 -0.83079 -60.12557 -57.37382 35.74659 113.87638 132.53041 -61.89679 -9.16282 30.44306 -4.46435 16.28019 134.1301 -60.7022 -55.76093 2.20719 59.85398 -3.90829 -16.16336 -15.39147 -10.81116 0.21155 -0.60751 37.6438 3.35646 3.38798 -34.24586 -5.61869 2.77745 2.0341
-0.51253 -0.0993 -0.65776 -357.27024 -28.03015 -3.80892 47.68216 3.047 -4.99925 -0.5563 4.04205 -0.83079 -59.4393 -57.11029 35.51666 113.95054 132.85223 -61.36695 -9.25359 31.06861 -4.15147 16.25683 134.17183 -61.23839 -55.81771 2.30447 61.04185 -3.55913 -11.05393 -18.66636 -11.37461 -3.12238 -2.45644 37.23053 3.80768 2.63545 -34.73725 -5.62751 2.86506 2.08245
-0.49736 -0.09579 -0.6522 -357.43102 -27.90826 -3.97165 47.96529 3.13291 -5.51876 -0.44597 4.12645 -0.83079 -58.34931 -57.71486 36.2516 114.09313 130.68247 -58.76241 -9.01201 31.86895 -3.77266 16.16973 133.87048 -62.02739 -55.55537 2.40378 60.58181 -2.93604 -10.00825 -19.98992 -11.10793 -3.8 -2.82369 36.6643 4.09122 1.35979 -35.62076 -5.7276 2.96285 2.14631
-0.48281 -0.09182 -0.64659 -357.57473 -27.63029 -4.11201 48.09546 3.1876 -6.11601 -0.3936 4.15991 -0.83079 -57.12488 -58.60393 37.30766 114.25905 127.69084 -55.4767 -8.66074 32.72601 -3.3594 16.0357 133.45138 -62.94964 -55.13074 2.50522 59.55164 -2.22192 -10.35712 -20.65102 -10.57069 -3.5562 -2.67645 36.07683 4.3124 -0.08897 -36.69036 -5.86451 3.06536 2.21611
-0.46808 -0.08812 -0.64103 -357.73046 -27.42 -4.25916 48.28496 3.26054 -6.66453 -0.3156 4.21191 -0.83079 -55.98616 -59.32867 38.18117 114.41345 125.16147 -52.59039 -8.37036 33.54712 -2.94937 15.90481 133.09052 -63.80985 -54.7238 2.60178 58.78618 -1.56136 -10.05633 -21.61862 -10.16937 -3.75029 -2.77338 35.53473 4.55688 -1.43247 -37.72962 -5.98809 3.16566 2.28284
-0.4529 -0.08415 -0.63533 -357.87086 -27.22659 -4.42382 48.52193 3.31803 -7.27293 -0.23224 4.28222 -0.83079 -54.73627 -60.19757 39.20521 114.573 122.25318 -49.30973 -8.03343 34.41717 -2.58472 15.84571 132.71006 -64.706 -54.5365 2.71734 58.01609 -0.84724 -9.7727 -22.5954 -9.72682 -3.88687 -2.83934 34.84379 4.82423 -2.89782 -38.54684 -6.09897 3.26657 2.35133
-0.43881 -0.08063 -0.62991 -358.03959 -26.95906 -4.54429 48.62059 3.39937 -7.77203 -0.17535 4.30305 -0.83079 -53.69031 -60.83629 39.99592 114.72565 119.94927 -46.70493 -7.76841 35.19319 -2.12482 15.62766 132.3437 -65.5458 -53.87168 2.79324 57.11183 -0.22463 -9.80357 -23.38198 -9.30119 -3.91438 -2.84219 34.45763 5.02889 -4.14232 -39.86231 -6.24357 3.36741 2.41762
-0.42749 -0.07849 -0.62524 -358.27273 -26.53428 -4.56208 48.39228 3.55716 -7.97203 -0.16955 4.19564 -0.83079 -53.22128 -60.75699 40.03444 114.86908 119.39915 -45.99415 -7.71508 35.73508 -1.35052 14.98397 132.02733 -66.21921 -51.77739 2.75437 55.99093 0.13236 -10.36263 -23.82247 -8.98255 -3.8791 -2.803 34.91225 5.07048 -4.79088 -42.5764 -6.48275 3.46401 2.47467
